{
  "asset": {
    "generator": "Khronos glTF Blender I/O v3.3.32",
    "version": "2.0"
  },
  "scene": 0,
  "scenes": [
    {
      "name": "Scene",
      "nodes": [
        0
      ]
    }
  ],
  "nodes": [
    {
      "mesh": 0,
      "name": "lightbulb_led"
    }
  ],
  "materials": [
    {
      "doubleSided": true,
      "name": "lightbulb_led",
      "normalTexture": {
        "index": 0
      },
      "pbrMetallicRoughness": {
        "baseColorTexture": {
          "index": 1
        },
        "metallicRoughnessTexture": {
          "index": 2
        }
      }
    }
  ],
  "meshes": [
    {
      "name": "Mesh.001",
      "primitives": [
        {
          "attributes": {
            "POSITION": 0,
            "NORMAL": 1,
            "TEXCOORD_0": 2
          },
          "indices": 3,
          "material": 0
        }
      ]
    }
  ],
  "textures": [
    {
      "sampler": 0,
      "source": 0
    },
    {
      "sampler": 0,
      "source": 1
    },
    {
      "sampler": 0,
      "source": 2
    }
  ],
  "images": [
    {
      "mimeType": "image/jpeg",
      "name": "lightbulb_led_nor_gl",
      "uri": "textures/lightbulb_led_nor_gl_1k.jpg"
    },
    {
      "mimeType": "image/jpeg",
      "name": "lightbulb_led_diff",
      "uri": "textures/lightbulb_led_diff_1k.jpg"
    },
    {
      "mimeType": "image/jpeg",
      "name": "lightbulb_led_metal-lightbulb_led_rough",
      "uri": "textures/lightbulb_led_arm_1k.jpg"
    }
  ],
  "accessors": [
    {
      "bufferView": 0,
      "componentType": 5126,
      "count": 4004,
      "max": [
        0.030720755457878113,
        0.08457458764314651,
        0.030720755457878113
      ],
      "min": [
        -0.030720753595232964,
        -0.015676606446504593,
        -0.030720755457878113
      ],
      "type": "VEC3"
    },
    {
      "bufferView": 1,
      "componentType": 5126,
      "count": 4004,
      "type": "VEC3"
    },
    {
      "bufferView": 2,
      "componentType": 5126,
      "count": 4004,
      "type": "VEC2"
    },
    {
      "bufferView": 3,
      "componentType": 5123,
      "count": 19260,
      "type": "SCALAR"
    }
  ],
  "bufferViews": [
    {
      "buffer": 0,
      "byteLength": 48048,
      "byteOffset": 0,
      "target": 34962
    },
    {
      "buffer": 0,
      "byteLength": 48048,
      "byteOffset": 48048,
      "target": 34962
    },
    {
      "buffer": 0,
      "byteLength": 32032,
      "byteOffset": 96096,
      "target": 34962
    },
    {
      "buffer": 0,
      "byteLength": 38520,
      "byteOffset": 128128,
      "target": 34963
    }
  ],
  "samplers": [
    {
      "magFilter": 9729,
      "minFilter": 9987
    }
  ],
  "buffers": [
    {
      "byteLength": 166648,
      "uri": "lightbulb_led.bin"
    }
  ]
}